<svg class="main-svg" xmlns="http://www.w3.org/2000/svg" xmlns:xlink="http://www.w3.org/1999/xlink" width="700" height="450" style="" viewBox="0 0 700 450"><rect x="0" y="0" width="700" height="450" style="fill: rgb(255, 255, 255); fill-opacity: 1;"/><defs id="defs-716474"><g class="clips"><clipPath class="plotclip" id="clip716474xyplot"><rect width="580" height="330"/></clipPath><clipPath class="axesclip" id="clip716474x"><rect x="60" y="0" width="580" height="450"/></clipPath><clipPath class="axesclip" id="clip716474y"><rect x="0" y="60" width="700" height="330"/></clipPath><clipPath class="axesclip" id="clip716474xy"><rect x="60" y="60" width="580" height="330"/></clipPath></g><g class="gradients"/></defs><g class="bglayer"><rect class="bg" x="60" y="60" width="580" height="330" style="fill: rgb(255, 255, 255); fill-opacity: 1; stroke-width: 0;"/></g><g class="layer-below"><g class="imagelayer"/><g class="shapelayer"/></g><g class="cartesianlayer"><g class="subplot xy"><g class="layer-subplot"><g class="shapelayer"/><g class="imagelayer"/></g><g class="gridlayer" transform="translate(60,60)"><path class="xgrid crisp" d="M0,0v330" transform="translate(90.35,0)" style="stroke: rgb(238, 238, 238); stroke-opacity: 1; stroke-width: 1px;"/><path class="xgrid crisp" d="M0,0v330" transform="translate(180.7,0)" style="stroke: rgb(238, 238, 238); stroke-opacity: 1; stroke-width: 1px;"/><path class="xgrid crisp" d="M0,0v330" transform="translate(271.04,0)" style="stroke: rgb(238, 238, 238); stroke-opacity: 1; stroke-width: 1px;"/><path class="xgrid crisp" d="M0,0v330" transform="translate(361.39,0)" style="stroke: rgb(238, 238, 238); stroke-opacity: 1; stroke-width: 1px;"/><path class="xgrid crisp" d="M0,0v330" transform="translate(451.74,0)" style="stroke: rgb(238, 238, 238); stroke-opacity: 1; stroke-width: 1px;"/><path class="xgrid crisp" d="M0,0v330" transform="translate(542.09,0)" style="stroke: rgb(238, 238, 238); stroke-opacity: 1; stroke-width: 1px;"/><path class="ygrid crisp" d="M0,0h580" transform="translate(0,270.76)" style="stroke: rgb(238, 238, 238); stroke-opacity: 1; stroke-width: 1px;"/><path class="ygrid crisp" d="M0,0h580" transform="translate(0,210.88)" style="stroke: rgb(238, 238, 238); stroke-opacity: 1; stroke-width: 1px;"/><path class="ygrid crisp" d="M0,0h580" transform="translate(0,151)" style="stroke: rgb(238, 238, 238); stroke-opacity: 1; stroke-width: 1px;"/><path class="ygrid crisp" d="M0,0h580" transform="translate(0,91.12)" style="stroke: rgb(238, 238, 238); stroke-opacity: 1; stroke-width: 1px;"/><path class="ygrid crisp" d="M0,0h580" transform="translate(0,31.24)" style="stroke: rgb(238, 238, 238); stroke-opacity: 1; stroke-width: 1px;"/></g><g class="overgrid"/><g class="zerolinelayer" transform="translate(60,60)"><path class="xzl zl crisp" d="M0,0v330" transform="translate(0,0)" style="stroke: rgb(68, 68, 68); stroke-opacity: 1; stroke-width: 1px;"/></g><g class="overzero"/><path class="xlines-below"/><path class="ylines-below"/><g class="overlines-below"/><g class="xaxislayer-below"/><g class="yaxislayer-below"/><g class="overaxes-below"/><g class="plot" transform="translate(60, 60)" clip-path="url(#clip716474xyplot)"><g class="imagelayer"/><g class="maplayer"/><g class="barlayer"/><g class="carpetlayer"/><g class="boxlayer"/><g class="scatterlayer"><g class="trace scatter traceb16129" style="stroke-miterlimit: 2; opacity: 1;"><path class="js-line" style="vector-effect: non-scaling-stroke; fill: none; stroke: rgb(31, 119, 180); stroke-opacity: 1; stroke-width: 2px; opacity: 1;" d="M0,16.5L0.78,205.97L0.82,207.51L2.18,226.6L2.22,226.97L4.84,242.77L4.89,246.33L5.02,250.55L5.66,250.44L5.7,250.54L5.75,250.21L6.24,251.34L6.33,251.18L6.38,251.21L7.24,253.17L7.28,253.28L9.59,254.81L9.63,249.33L10.04,259.98L10.4,258.18L10.44,258.07L10.49,257.65L11.03,259.21L11.08,259.49L11.8,258.7L11.98,259.03L12.03,259.19L13.83,259.62L13.88,259.79L14.42,259.92L14.46,259.8L14.51,264.08L14.78,259.94L15.32,262.06L15.37,262.46L15.77,261.02L16.14,261.74L16.18,261.98L17.27,263L17.45,262.8L17.49,262.7L18.49,262.91L18.53,262.81L19.25,263.09L19.3,273.36L19.66,264.85L20.07,265.64L20.11,265.48L20.2,265.62L20.43,264.62L20.47,264.7L20.52,264.71L20.79,264.47L20.92,264.93L21.24,264.89L21.29,265.08L23.05,265.88L23.09,265.78L23.14,265.73L24.09,265.7L24.13,260.23L24.54,267.89L25.04,266.6L25.08,266.51L26.89,268.02L26.93,267.98L26.98,267.99L28.11,267.25L28.15,267.19L28.92,267.46L28.97,261.95L29.28,271.31L29.73,270.21L29.78,270.46L29.87,270.74L30.32,269.72L30.37,269.56L30.91,269.85L31.18,269.17L31.27,269.22L31.31,269.4L32.44,268.99L32.49,269.03L32.53,269.01L33.75,269.22L33.8,276.88L34.57,270.35L34.61,270.55L34.66,270.32L35.34,270.44L35.43,270.08L35.47,269.97L35.79,270.04L35.97,269.48L36.01,269.43L36.96,270.02L37.01,269.97L38.59,270.63L38.63,260.03L39.54,270.5L39.63,270.23L39.67,270.36L40.21,271.08L40.49,270.82L40.53,270.87L42.07,271.88L42.11,271.78L43.38,271.89L43.42,271.81L43.47,271.55L43.6,269.63L44.1,273.05L44.14,273.12L44.51,273.78L45.27,272.4L45.32,272.56L46,272.57L46.04,272.67L46.09,272.81L47.94,273.03L47.98,273.01L48.26,273.11L48.3,270.95L48.35,275.26L49.07,274.83L49.11,274.68L49.2,275.02L49.66,274.04L49.7,274.05L49.75,273.66L50.51,273.86L50.56,274.09L51.15,274.39L51.37,274.19L51.42,274.09L53.09,273.93L53.13,279.32L53.27,268.36L53.9,274.24L53.95,274.66L54.31,273.91L54.71,274.43L54.76,274.63L57.11,275.44L57.15,275.36L57.92,275.45L57.97,268.46L58.83,278.48L58.87,278.53L59.77,277.21L59.82,277.22L59.86,277.16L60.45,277.02L60.54,276.79L60.59,276.73L62.76,276.34L62.8,274.12L62.85,279.49L63.57,277.69L63.61,277.66L63.89,278.34L64.29,277.35L64.34,277.43L65.78,277.67L65.83,277.63L67.59,277.38L67.63,280.65L67.73,281.4L68.04,278.14L68.49,279.06L68.54,279.11L68.67,279.24L69.26,278.11L69.4,278.2L69.44,278.17L69.71,278.35L70.07,278.18L70.21,278.25L70.25,278.25L71.38,278.39L71.43,278.38L72.42,278.13L72.47,281L72.92,277.21L73.33,277.33L73.37,277.57L75.13,279.1L75.18,279.04L77.26,279.02L77.3,281.11L77.35,283.62L77.98,279.43L78.02,279.36L78.25,278.73L78.66,279.77L78.7,280L78.88,280.5L79.43,279.9L79.47,279.91L80.24,280.27L80.28,280.16L80.33,280.05L81.37,279.74L81.41,279.71L82.09,279.63L82.14,277.91L82.27,276.03L82.45,279.11L82.5,279.66L83.45,280.54L83.58,280.44L83.63,280.12L83.94,280.35L84.39,280L84.44,280.01L86.02,280.29L86.07,280.24L86.92,280.49L86.97,288.13L87.15,277.19L87.74,278.97L87.78,279.35L87.96,278.89L88.28,279.56L88.46,279.52L88.51,279.7L90.94,281.12L90.99,281.12L91.76,281.04L91.8,288.76L91.89,280.37L92.57,282.58L92.62,282.35L93.34,281.69L93.56,281.94L93.61,282.06L94.02,282.19L94.42,281.94L94.47,281.88L95.55,281.75L95.6,281.74L96.64,281.44L96.68,278.02L97.31,280.87L97.54,280.58L97.59,280.75L98.9,281.78L98.94,281.75L99.71,282.58L99.98,282.32L100.02,282.29L101.06,282.51L101.11,282.55L101.43,282.68L101.47,284.77L101.56,285.85L102.06,283.51L102.1,283.28L102.74,282.56L103.1,282.73L103.14,282.88L104.14,283.13L104.18,283.1L104.9,283.11L104.95,283.13L104.99,283.17L106.26,283.42L106.3,287.04L106.35,283L107.07,284.49L107.12,284.46L107.21,284.7L107.48,283.91L107.79,284.26L107.84,284.01L108.7,284.29L108.74,284.21L108.79,284.09L109.29,283.91L109.56,284.23L109.6,284.26L111.09,284.04L111.14,287.78L111.54,281.75L111.91,282.81L111.95,282.97L112.72,284.55L112.99,284.22L113.03,284.24L115.07,284.42L115.11,284.48L115.93,284.4L115.97,289.51L116.02,284.51L116.74,285.46L116.78,285.35L117.64,284.6L117.69,284.64L117.73,284.66L118.86,285.36L118.91,285.34L119.77,285.65L119.81,285.65L120.76,285.35L120.8,280.6L121.84,286.24L121.89,286.36L122.21,285.43L122.7,286.09L122.75,286.04L124.33,285.88L124.37,285.95L125.55,286.04L125.59,285.95L125.64,277.76L126.41,285.25L126.5,285.11L126.54,285L126.77,284.73L127.17,285.76L127.22,286.13L128.21,285.86L128.26,285.99L128.3,286L129.12,286.07L129.16,286.15L130.43,286.34L130.47,285.14L130.52,283.7L131.1,286.15L131.15,285.98L131.19,286.08L131.47,286.57L132.05,285.74L132.1,285.81L135.08,287.12L135.12,287.06L135.26,287L135.31,293.35L136.12,286.11L136.16,286.17L136.21,285.81L136.34,286.52L136.84,286.23L136.89,286.38L137.79,287.09L137.84,287.14L139.87,287.55L139.91,287.49L140.09,287.36L140.14,283.19L140.91,288.01L140.95,288.05L141.81,288.54L141.86,288.65L142.71,288.76L142.76,288.77L143.48,288.1L143.53,288.04L144.93,288.14L144.97,284.57L145.15,290.75L145.74,288.87L145.79,288.96L146.06,289.43L146.42,288.84L146.46,289.3L147.46,288.4L147.5,288.37L148.41,288.38L148.45,288.41L149.58,288.39L149.63,288.4L150.03,292.27L150.26,290.13L150.3,289.68L150.76,288.31L151.21,288.74L151.25,288.72L151.57,288.51L152.02,288.58L152.07,288.62L152.7,288.67L152.83,288.46L152.88,288.48L154.59,288.76L154.64,288.25L154.69,290.68L154.73,287.66L155.45,288.68L155.5,288.92L156.22,288.8L156.36,288.99L156.4,289.18L157.4,289.33L157.44,289.25L158.71,289.27L158.75,289.3L159.43,289.29L159.47,284.6L160.02,289.38L160.69,289.1L160.74,289.07L162.27,289.36L162.32,289.33L163,289.27L163.09,289.44L163.13,289.42L164.26,289.53L164.31,294.36L164.4,294.94L165.53,290.39L165.57,290.44L165.62,290.42L165.89,290.16L166.16,290.62L166.34,290.4L166.39,290.41L167.61,290.29L167.65,290.33L169.19,289.75L169.23,290.56L169.73,292.37L169.91,291.52L169.95,291.26L170.54,291.61L170.77,290.56L170.81,290.58L171.72,290.36L171.76,290.37L173.21,290.37L173.25,290.38L173.93,290.53L173.97,286.44L174.47,291.37L174.83,290.46L174.88,290.36L176.28,291.64L176.37,291.48L176.41,291.42L178.67,291.36L178.72,291.28L178.81,301.57L179.12,290.8L179.44,290.97L179.49,290.64L180.3,292.17L180.39,292.07L180.43,291.98L181.47,292.2L181.52,292.15L181.56,292.08L183.6,291.82L183.64,293.92L183.87,290.4L184.41,292.36L184.46,292.33L185.13,291.96L185.18,291.87L186.35,292.23L186.4,292.19L187.62,292.12L187.66,292.19L187.71,292.19L188.43,292.15L188.48,299.7L188.97,291.9L189.29,292.43L189.33,292.58L190.19,292.51L190.24,292.69L191.82,292.84L191.86,292.76L192.81,292.7L192.86,292.68L193.26,292.67L193.31,293.47L193.4,290.31L194.08,291.29L194.12,291.47L198.1,292.82L198.14,292.06L199.18,294.76L199.23,294.52L200.04,293.33L200.09,293.37L200.13,293.29L201.35,293.41L201.4,293.33L202.93,293.44L202.98,291.13L203.07,290.35L203.83,293.3L203.88,293.18L204.42,293.8L204.69,293.73L204.74,293.8L205.55,293.88L205.6,293.85L205.64,293.81L207.76,293.75L207.81,287.08L208.08,290.05L208.13,291.11L209.21,293.05L209.26,293.1L210.43,294.03L210.48,294.17L212.1,294.57L212.15,294.58L212.64,293.86L212.69,294.8L212.73,294.17L212.87,295.36L213.41,294.83L213.46,295.08L213.77,295.49L214.22,294.65L214.27,294.7L214.32,294.66L215.67,294.74L215.72,294.69L217.43,294.41L217.48,291.45L217.66,294.93L218.25,294.57L218.29,294.45L218.47,293.93L219.01,294.57L219.06,294.59L220.1,294.6L220.14,294.67L220.19,294.7L222.27,294.7L222.31,292.75L222.99,296.33L223.08,296.01L223.12,295.95L224.34,296.14L224.39,296.04L226.06,295.78L226.11,295.78L227.1,295.72L227.14,299.25L227.6,294.74L228,295.75L228.05,295.93L228.14,295.72L228.64,296.49L228.68,296.39L228.73,296.39L231.71,295.47L231.75,295.52L231.89,295.59L231.93,295.5L231.98,289.66L232.25,295.9L232.75,295.88L232.79,295.44L233.42,296.04L233.56,295.84L233.6,295.66L236.13,296L236.18,296.06L236.77,295.99L236.81,300.64L237.17,296.12L237.67,296.7L237.72,296.93L237.94,296.72L238.21,297.1L238.48,296.88L238.53,296.95L239.16,297.17L239.39,296.94L239.43,296.86L241.6,296.6L241.65,292.34L241.83,298.36L242.41,297.04L242.46,297.15L243.27,296.58L243.5,296.95L243.54,296.95L245.62,297.08L245.67,297L246.43,296.68L246.48,294.11L246.89,297.77L247.25,296.92L247.29,296.59L248.11,297.03L248.15,296.92L248.2,296.92L249.14,296.91L249.19,296.96L251.27,297.17L251.31,295.67L251.4,299.32L252.08,298.47L252.13,298.43L252.17,298.58L252.53,297.85L252.71,297.97L252.76,297.86L253.66,297.21L253.71,297.26L253.75,297.27L255.06,297.3L255.11,297.33L256.1,297.31L256.15,299.25L256.19,300.24L256.28,297.7L256.87,298.65L256.91,298.56L257.23,299.07L257.46,298.26L257.59,298.33L257.64,298.33L259.26,297.36L259.31,297.44L260.98,297.32L261.03,299.19L261.12,300.28L261.61,298.06L261.79,298.29L261.84,298.23L262.74,297.25L262.92,297.37L262.97,297.33L264.55,297.57L264.59,297.54L265.77,297.82L265.81,299.66L265.86,301.49L266.45,298.37L266.49,298.84L266.54,298.8L267.21,298.31L267.35,298.37L267.39,298.51L268.52,297.91L268.57,297.97L268.61,297.96L269.97,298.26L270.01,298.27L270.65,297.77L270.69,297.29L271.46,299.59L271.6,299.21L271.64,299.17L275.44,298.56L275.48,301.53L275.71,299.31L276.34,299.62L276.38,299.88L277.2,299.81L277.24,299.72L278.28,299.39L278.33,299.26L279.28,299L279.32,299.01L280.27,299.01L280.31,301.12L280.5,301.44L280.86,299.57L281.22,300.24L281.26,300.38L281.31,300.59L281.49,300.18L281.99,300.25L282.03,300.25L282.89,299.99L282.93,299.89L284.29,299.31L284.34,299.3L285.1,299.25L285.15,302.56L285.65,299.01L285.96,299.58L286.01,299.81L286.1,300.08L286.68,299.22L286.73,299.28L288.17,299.36L288.22,299.36L289.98,300.31L290.03,301.19L290.07,301.94L290.21,299.8L290.7,300.23L290.75,300.39L291.7,299.64L291.74,299.79L291.79,299.89L292.96,299.86L293.01,299.82L294.32,299.86L294.36,299.88L294.77,299.67L294.82,305.84L295.45,299.87L295.58,300.37L295.63,300.19L296.62,300.53L296.67,300.44L298.84,299.94L298.88,299.96L299.6,299.92L299.65,301.45L299.78,300.17L300.46,300.47L300.51,300.44L300.64,300.32L301.19,300.66L301.28,300.56L301.32,300.53L303.9,300.49L303.94,300.41L304.44,300.43L304.48,296.41L304.53,295.25L304.84,301.61L305.02,300.44L305.07,300.59L306.02,301.41L306.06,301.35L306.11,301.28L307.74,300.79L307.78,300.87L309.27,300.7L309.32,294.15L310.08,300.73L310.13,300.65L310.85,301.26L310.94,301.11L310.99,300.93L311.76,301.22L311.89,301.08L311.94,301.04L314.1,301.12L314.15,303.91L314.29,301.22L314.96,301.64L315.01,301.7L315.73,301.15L315.82,301.24L315.87,301.23L316.68,301.48L316.73,301.43L316.77,301.43L318.26,301.08L318.31,301.06L318.94,301.14L318.98,295.74L319.16,301.62L319.8,301.4L319.84,301.66L320.93,301.03L320.97,301.05L321.83,300.96L321.87,301.04L322.69,301.14L322.73,301.2L323.77,301.16L323.82,300.02L324.27,302.8L324.63,301.67L324.68,301.56L325.85,301.48L325.9,301.41L326.66,301.57L326.71,301.65L328.61,301.56L328.65,302.41L328.97,302.45L329.37,300.45L329.46,300.88L329.51,301.05L330.59,301.47L330.64,301.41L331.77,301.53L331.81,301.57L332.72,301.63L332.76,301.61L333.44,301.64L333.48,304.02L333.53,302.07L334.25,302.74L334.3,302.95L336.6,302.19L336.65,302.27L338.27,302.19L338.32,307.51L339.45,302.64L339.49,302.74L341.07,302.23L341.12,302.25L343.11,302.4L343.15,304.31L343.2,305.25L343.29,301.87L343.78,302.37L343.83,302.3L344.28,301.8L344.6,302.22L344.64,302.25L345.55,302.14L345.68,302.3L345.73,302.33L346.81,302.36L346.86,302.39L347.94,302.73L347.99,302.22L348.03,299.59L348.84,302.5L348.89,302.51L349.21,301.98L349.61,302.28L349.66,302.38L350.56,302.64L350.61,302.57L350.65,302.55L352.23,302.65L352.28,302.61L352.77,302.71L352.82,305.22L353.54,303.13L353.68,303.2L353.72,303.21L355.76,303.72L355.8,303.68L357.61,303.08L357.65,305.27L357.7,307.57L357.88,303.34L358.33,303.55L358.38,303.64L359.32,304.2L359.41,303.95L359.46,303.82L361.36,303.31L361.4,303.28L362.44,303.18L362.49,304.34L362.58,303.14L362.94,304.41L363.25,303.7L363.3,303.68L364.43,303.05L364.47,303.17L366.06,303.25L366.1,303.36L367.27,303.23L367.32,307.94L368.18,303.67L368.22,303.35L369.31,303.62L369.35,303.52L369.94,303.42L370.12,303.64L370.17,303.65L371.16,303.45L371.21,303.44L372.11,303.51L372.15,302.52L372.24,305.21L372.88,302.84L372.92,303.13L373.73,303.65L373.78,303.64L375.68,303.97L375.72,303.93L376.99,304.47L377.03,303.54L377.44,302.14L377.8,302.95L377.85,302.89L378.07,302.6L379.11,303.88L379.16,303.87L380.1,303.98L380.15,303.95L381.78,303.9L381.82,311.19L382.59,304.2L382.63,304.3L382.68,304.42L383.13,304.36L383.22,304.03L383.27,303.94L384.44,304.34L384.49,304.25L386.61,304.13L386.65,302.56L386.7,301.73L387.24,304.6L387.29,304.72L388.06,305.13L388.1,305.28L390.13,306.19L390.18,306.14L391.44,306.17L391.49,304.62L392.21,308.01L392.35,307.64L392.39,307.51L394.97,307.5L395.01,307.46L396.28,307.15L396.32,305.21L396.46,308.17L397.14,307.8L397.18,307.8L397.32,307.98L397.54,307.49L397.86,307.46L397.9,307.44L399.08,307.58L399.12,307.51L399.17,307.47L401.11,307.33L401.16,310.08L401.25,307.15L401.92,307.58L401.97,307.42L402.83,306.94L402.87,306.95L405.94,307.41L405.99,301.75L406.71,307.33L406.85,307L406.89,307.01L408.43,307.28L408.47,307.27L410.82,308.28L410.87,309.65L411.68,307.48L411.86,307.78L411.91,307.74L412.58,307.42L412.77,307.58L412.81,307.55L414.08,307.66L414.12,307.66L415.61,307.69L415.66,308.13L415.79,306.48L416.02,308.43L416.42,307.67L416.47,307.67L416.65,307.09L417.24,307.48L417.28,307.47L418.5,307.75L418.55,307.7L420.08,307.86L420.13,307.84L420.49,307.18L420.54,306.81L421.03,308.71L421.35,308.16L421.39,308.06L422.48,307.57L422.52,307.62L424.42,308.14L424.47,308.16L425.28,308.12L425.32,311.48L425.37,311.79L425.64,308.88L425.69,308.61L425.73,308.81L425.91,308.16L426.41,308.48L426.45,308.45L427.27,308.46L427.31,308.54L430.11,308.14L430.16,312.48L430.52,307.18L430.97,308.35L431.02,308.23L431.78,308.24L431.83,308.39L432.96,308.44L433,308.34L435.13,308.25L435.17,308.75L435.53,308.22L435.98,308.45L436.03,308.39L438.29,308.51L438.33,308.55L439.78,308.57L439.82,311.94L440.14,308.53L440.73,309.1L440.77,309.25L441.32,308.93L441.5,309.27L441.54,309.31L442.44,308.93L442.49,308.9L444.21,308.38L444.25,308.38L444.61,308.33L444.66,313.25L445.47,309.1L445.52,309.16L445.56,309.24L446.24,309.1L446.37,309.15L446.42,309.22L447.41,308.57L447.46,308.57L449.45,308.38L449.49,306.57L449.9,309.78L450.31,308.99L450.35,308.8L451.39,308.78L451.43,308.69L454.28,308.71L454.33,310.78L454.78,307.64L455.18,307.91L455.23,307.96L459.11,308.75L459.16,309.81L459.93,307.89L459.97,308.02L460.11,307.47L460.51,308.37L460.65,308.25L460.7,308.29L462.46,308.55L462.5,308.58L463.95,308.62L463.99,313.29L464.26,309.79L464.81,310.42L464.85,310.3L465.8,309.55L465.84,309.56L468.78,309.02L468.83,312.71L469.23,309.12L469.59,309.27L469.64,309.22L470.23,309.34L470.41,308.97L470.45,308.94L471.94,309.03L471.99,309L473.34,308.87L473.39,308.84L473.61,308.73L473.66,310.76L473.8,307.88L474.43,308.94L474.47,308.97L475.47,308.95L475.51,308.95L477.18,308.84L477.23,308.89L478.49,309.64L478.54,305.89L479.4,309.07L479.44,308.91L479.94,309.18L480.26,309.07L480.3,309.1L481.7,309.19L481.75,309.2L483.28,309.1L483.33,311.3L483.78,308.93L484.14,309.4L484.19,309.43L484.95,309.11L485.04,309.22L485.09,309.21L487.08,309.53L487.12,309.48L488.12,309.35L488.16,310.2L488.3,310.6L488.48,309.2L488.93,309.73L488.97,309.48L489.29,309.16L489.92,309.53L489.97,309.52L491.23,309.53L491.28,309.51L492.99,309.54L493.04,311.66L493.08,312.03L493.36,309.84L493.54,310.03L493.58,309.58L493.63,309.87L494.12,309L494.21,309.01L494.26,309.02L494.53,308.66L494.98,309.2L495.03,309.2L497.78,309.01L497.83,307L498.37,309.3L498.73,308.93L498.78,308.93L499.86,309.2L499.91,309.18L502.71,309.26L502.75,308.22L502.93,307.61L503.16,308.31L503.47,308.13L503.52,308.15L505.64,309.14L505.69,309.13L507.5,309.79L507.54,310.01L507.59,310.25L508.08,309.36L508.22,309.6L508.26,309.48L509.39,309.53L509.44,309.41L509.48,309.34L512.01,309.42L512.06,309.39L512.28,309.35L512.33,306.09L512.87,309.29L513.1,309.1L513.14,308.91L515.13,309.22L515.18,309.17L517.16,309.51L517.21,310L517.93,308.73L518.11,308.82L518.16,308.84L518.43,309.24L518.88,308.89L518.92,308.83L519.92,309.06L519.96,309.09L521.41,309.07L521.45,309.07L522,309.37L522.04,310.96L522.85,309.23L522.9,309.36L522.95,309.49L524.12,309.56L524.16,309.56L526.78,309.58L526.83,310.78L526.92,308.58L527.6,309.54L527.64,309.68L527.69,309.97L527.91,309.41L528.37,309.59L528.41,309.64L530.22,309.55L530.26,309.55L531.62,309.45L531.66,313.5L532.57,308.88L532.61,309.03L532.66,309.06L534.78,309.16L534.83,309.09L536,309.12L536.05,309.12L536.45,309.14L536.5,313.21L536.68,309.78L537.27,310.07L537.31,309.99L538.39,310.02L538.44,309.91L539.39,309.8L539.43,309.81L541.42,309.22L541.47,308.4L541.78,309.97L542.23,309.15L542.28,309.13L543.63,308.92L543.68,308.94L545.94,309L545.98,309.02L546.39,311.31L546.75,309.8L546.8,309.48L547.25,308.62L547.56,308.89L547.61,309.08L548.83,309.08L548.88,309.13L550.95,309.51L551,310.45L551.09,309.07L551.77,309.37L551.81,309.49L552.94,309.83L552.99,309.73L553.84,309.4L553.93,309.45L553.98,309.46L555.79,309.4L555.83,312.29L556.78,309.34L556.83,309.45L558.9,309.17L558.95,309.13L560.67,308.35L560.71,310.11L561.21,308.91L561.43,309.18L561.48,309.4L562.11,308.86L562.25,309.09L562.29,309.22L562.92,309.32L563.1,309.22L563.15,309.19L565.45,309.37L565.5,309.95L565.59,310.57L566,309.46L566.22,310.02L566.27,309.7L566.31,309.5L566.63,310.05L566.99,309.84L567.04,309.81L568.3,309.64L568.35,309.62L570.33,309.46L570.38,310.58L571.15,309.25L571.19,309.35L571.24,309.47L571.6,309.01L572.05,309.16L572.09,309.09L573.04,309.25L573.09,309.24L575.12,309.33L575.17,310.77L575.21,311.01L575.44,309.84L575.75,309.92L575.8,309.98L576.61,309.56L576.7,309.68L576.75,309.64L579.95,309.39"/><g class="points"/></g><g class="trace scatter trace602d00" style="stroke-miterlimit: 2; opacity: 1;"><path class="js-line" style="vector-effect: non-scaling-stroke; fill: none; stroke: rgb(255, 127, 14); stroke-opacity: 1; stroke-width: 2px; opacity: 1;" d="M0,16.5L4.8,231.39L9.63,238.94L19.3,246.6L24.13,250.19L33.8,253.02L38.63,255.38L48.3,257.9L53.13,257.83L57.97,259.94L62.8,260.51L72.47,262.08L77.3,261.88L86.97,264.22L91.8,264.01L96.64,263.7L101.47,265.5L106.3,265.9L111.14,264.59L115.97,266.45L120.8,267.16L130.47,267.23L135.31,267.6L140.14,267.52L144.97,268.9L154.64,268.24L159.47,268.55L164.31,268.75L169.14,268.19L173.97,269.42L178.81,269.18L193.31,269.75L198.14,268.71L207.81,269.06L212.64,269.21L217.48,269.44L222.31,268.68L227.14,269.64L231.98,268.65L236.81,269.06L241.65,270.95L246.48,269.16L251.31,269.93L260.98,269.64L265.81,270.42L289.98,269.9L294.82,269.4L299.65,270.9L304.48,270.33L309.32,271.45L314.15,269.96L323.82,267.25L328.65,270.38L333.48,269.61L338.32,271.39L343.15,269.93L347.99,270.51L357.65,269.24L362.49,269.87L367.32,271.53L372.15,271.02L381.82,270.72L386.65,269.08L391.49,270.56L396.32,271.03L439.82,271L444.66,271.42L459.16,270.78L463.99,271.35L478.49,271.1L483.33,271.43L497.83,271.07L502.66,271.15L580,271.08"/><g class="points"/></g></g></g><g class="overplot"/><path class="xlines-above crisp" style="fill: none; stroke-width: 1px; stroke: rgb(0, 0, 0); stroke-opacity: 0;" transform="translate(60,60)" d="M-1,330.5H580"/><path class="ylines-above crisp" style="fill: none; stroke-width: 1px; stroke: rgb(0, 0, 0); stroke-opacity: 0;" transform="translate(60,60)" d="M-0.5,0V330"/><g class="overlines-above"/><g class="xaxislayer-above" transform="translate(60,60)"><g class="xtick"><text text-anchor="middle" x="0" y="343" style="font-family: TOBESTRIPPEDOpen SansTOBESTRIPPED, verdana, arial, sans-serif; font-size: 12px; fill: rgb(68, 68, 68); fill-opacity: 1; white-space: pre;" transform="translate(0,0)">0</text></g><g class="xtick"><text text-anchor="middle" x="0" y="343" style="font-family: TOBESTRIPPEDOpen SansTOBESTRIPPED, verdana, arial, sans-serif; font-size: 12px; fill: rgb(68, 68, 68); fill-opacity: 1; white-space: pre;" transform="translate(90.35,0)">10k</text></g><g class="xtick"><text text-anchor="middle" x="0" y="343" style="font-family: TOBESTRIPPEDOpen SansTOBESTRIPPED, verdana, arial, sans-serif; font-size: 12px; fill: rgb(68, 68, 68); fill-opacity: 1; white-space: pre;" transform="translate(180.7,0)">20k</text></g><g class="xtick"><text text-anchor="middle" x="0" y="343" style="font-family: TOBESTRIPPEDOpen SansTOBESTRIPPED, verdana, arial, sans-serif; font-size: 12px; fill: rgb(68, 68, 68); fill-opacity: 1; white-space: pre;" transform="translate(271.04,0)">30k</text></g><g class="xtick"><text text-anchor="middle" x="0" y="343" style="font-family: TOBESTRIPPEDOpen SansTOBESTRIPPED, verdana, arial, sans-serif; font-size: 12px; fill: rgb(68, 68, 68); fill-opacity: 1; white-space: pre;" transform="translate(361.39,0)">40k</text></g><g class="xtick"><text text-anchor="middle" x="0" y="343" style="font-family: TOBESTRIPPEDOpen SansTOBESTRIPPED, verdana, arial, sans-serif; font-size: 12px; fill: rgb(68, 68, 68); fill-opacity: 1; white-space: pre;" transform="translate(451.74,0)">50k</text></g><g class="xtick"><text text-anchor="middle" x="0" y="343" style="font-family: TOBESTRIPPEDOpen SansTOBESTRIPPED, verdana, arial, sans-serif; font-size: 12px; fill: rgb(68, 68, 68); fill-opacity: 1; white-space: pre;" transform="translate(542.09,0)">60k</text></g></g><g class="yaxislayer-above" transform="translate(60,60)"><g class="ytick"><text text-anchor="end" x="-1" y="4.199999999999999" style="font-family: TOBESTRIPPEDOpen SansTOBESTRIPPED, verdana, arial, sans-serif; font-size: 12px; fill: rgb(68, 68, 68); fill-opacity: 1; white-space: pre;" transform="translate(0,270.76)">5</text></g><g class="ytick"><text text-anchor="end" x="-1" y="4.199999999999999" style="font-family: TOBESTRIPPEDOpen SansTOBESTRIPPED, verdana, arial, sans-serif; font-size: 12px; fill: rgb(68, 68, 68); fill-opacity: 1; white-space: pre;" transform="translate(0,210.88)">10</text></g><g class="ytick"><text text-anchor="end" x="-1" y="4.199999999999999" style="font-family: TOBESTRIPPEDOpen SansTOBESTRIPPED, verdana, arial, sans-serif; font-size: 12px; fill: rgb(68, 68, 68); fill-opacity: 1; white-space: pre;" transform="translate(0,151)">15</text></g><g class="ytick"><text text-anchor="end" x="-1" y="4.199999999999999" style="font-family: TOBESTRIPPEDOpen SansTOBESTRIPPED, verdana, arial, sans-serif; font-size: 12px; fill: rgb(68, 68, 68); fill-opacity: 1; white-space: pre;" transform="translate(0,91.12)">20</text></g><g class="ytick"><text text-anchor="end" x="-1" y="4.199999999999999" style="font-family: TOBESTRIPPEDOpen SansTOBESTRIPPED, verdana, arial, sans-serif; font-size: 12px; fill: rgb(68, 68, 68); fill-opacity: 1; white-space: pre;" transform="translate(0,31.24)">25</text></g></g><g class="overaxes-above"/></g></g><g class="ternarylayer"/><g class="geolayer"/><g class="layer-above"><g class="imagelayer"/><g class="shapelayer"/></g><g class="pielayer"/><g class="glimages"/><defs id="topdefs-716474"><g class="clips"/></defs><g class="infolayer"><g class="g-gtitle"/><g class="g-xtitle"/><g class="g-ytitle"/></g></svg>